<svg xmlns="http://www.w3.org/2000/svg" viewBox="0 0 508 508"><defs/><circle cx="254" cy="254" r="254" fill="#324a5e"/><path d="M181.2 118.4c-4 2.8-5.6 8-4.8 12.4 1.6 7.6 0 16.4 0 24.4.4 16.8 7.2 33.2 4 50-3.6 19.6-20.8 23.2-30 40.4-2.4 4.4.8 9.6 5.6 10.4 3.6.4 6.8 2 7.6 5.6.8 2.4-.8 13.2-.8 15.6 0 9.2 26.4 14.8 34.4 19.2-6.4 1.2-23.6 6.4-28.4 12.4-1.2 1.6-.4 4 1.6 4.4 6.8 2.4 11.2 10.4 12.4 18 1.2 8.8-.4 17.6 1.6 26 4.4 18.4 30.4 12 47.2 2.8l-1.6 48.4 119.2-20v-10.8s-3.2-40 10.8-66c7.6-14.4 13.2-28 20.8-42.4 10-20 14.4-41.6 15.6-63.6C401.6 104.4 284 40 181.2 118.4z" fill="#ffd05b"/></svg>
