<svg xmlns="http://www.w3.org/2000/svg" viewBox="0 0 505 505"><defs/><path d="M505 252.5A252.1 252.1 0 01252.5 505 252.1 252.1 0 010 252.5a252.5 252.5 0 01505 0z" fill="#324a5d"/><path d="M392 256.7l-.3 3.7c-2.2 25.6-12 48.6-26.6 66.9a87.5 87.5 0 00-18.3 63.9l10.7 91a252 252 0 01-209.8 0l10.7-91c2.6-22.4-4-46-18.3-63.9a122.7 122.7 0 01-26.6-66.9l-.3-3.7a242.6 242.6 0 0124.5-118.8A115 115 0 01241 70.6h23c43.8 0 83.5 25.9 103.6 67.2A243 243 0 01392 256.7z" fill="#fff"/><path d="M290.6 413.8c-18.9 12.6-38.2 20.6-38.2 20.6s-19.3-8.1-38.1-20.6c-19-12.7-38.1-30.2-36.4-49 .7-7.7 2.9-14.9 6.4-21.5a219.3 219.3 0 0023.1-67.7l8-54.1c9.4 3.3 22.5 5.4 37 5.4 14.6 0 27.7-2.1 37.1-5.4l8 54.1a217.3 217.3 0 0023.1 67.8 60.3 60.3 0 016.4 21.5c1.8 18.6-17.3 36.2-36.4 48.9z" fill="#ffd05b"/><path d="M290.6 413.8c-18.9 12.6-38.2 20.6-38.2 20.6s-19.3-8.1-38.1-20.6l.6-.4a65.6 65.6 0 0175.7.4zm-11.3-132.2c-3.4 8.4-9 13.2-12.2 10.3-3.1-2.8-2.3-11.7 1.3-19.4 3.4-7.2 8.3-11 11.2-8.8 3 2.3 2.9 10.1-.3 17.9zm-53.6 0c3.4 8.4 9 13.2 12.2 10.3 3.1-2.8 2.3-11.7-1.3-19.4-3.4-7.2-8.3-11-11.2-8.8-3 2.3-2.9 10.1.3 17.9z" fill="#f9b54c"/><path d="M204.7 200.8a79.8 79.8 0 00-8-17.8c-3.5-5.3-8-9.6-13.3-11.5a8 8 0 00-4-.6 8.3 8.3 0 00-4.3 2.7c-1.8 2-3.3 4.8-3.3 7.9a45.3 45.3 0 005.4 16.6c2.1 3.5 5.1 6.3 8.5 7.3 4.9 1.3 9.8-1.3 14.3-3.9l4.7-.7z" fill="#324a5e"/><path d="M187.1 204.5c4.9 0 9-5.9 10.6-14.2-.9-1.9-1.7-3.8-2.8-5.5a25.5 25.5 0 00-11.7-10.5c-1.1-.4-2.3-.7-3.5-.5s-2.2 1-3.2 2a42 42 0 00-.7 7.3c0 11.8 5 21.4 11.3 21.4z" fill="#f9b54c"/><ellipse cx="185.7" cy="187.9" rx="3.5" ry="9.5" fill="#2b3b4e"/><path d="M300.3 200.8a79.8 79.8 0 018-17.8c3.5-5.3 8-9.6 13.3-11.5a8 8 0 014-.6c1.6.3 3.1 1.4 4.3 2.7 1.8 2 3.3 4.8 3.3 7.9a45.3 45.3 0 01-5.4 16.6 15.7 15.7 0 01-8.5 7.3c-4.9 1.3-9.8-1.3-14.3-3.9l-4.7-.7z" fill="#324a5e"/><path d="M317.9 204.5c-4.9 0-9-5.9-10.6-14.2.9-1.9 1.7-3.8 2.8-5.5 3.1-4.8 7.1-8.8 11.7-10.5 1.1-.4 2.3-.7 3.5-.5s2.2 1 3.2 2c.4 2.3.7 4.7.7 7.3 0 11.8-5 21.4-11.3 21.4z" fill="#f9b54c"/><ellipse cx="319.3" cy="187.9" rx="3.5" ry="9.5" fill="#2b3b4e"/></svg>
